<?xml version="1.0" encoding="utf-8"?>
<!-- Generator: Adobe Illustrator 16.0.0, SVG Export Plug-In . SVG Version: 6.00 Build 0)  -->
<!DOCTYPE svg PUBLIC "-//W3C//DTD SVG 1.1//EN" "http://www.w3.org/Graphics/SVG/1.1/DTD/svg11.dtd">
<svg version="1.1" id="Layer_1" xmlns="http://www.w3.org/2000/svg" xmlns:xlink="http://www.w3.org/1999/xlink" x="0px" y="0px"
	 width="202px" height="202px" viewBox="0 0 202 202" enable-background="new 0 0 202 202" xml:space="preserve">
<g>
	<circle fill-rule="evenodd" clip-rule="evenodd" fill="#005632" cx="101" cy="101" r="98.75"/>
	<g>
		<path fill-rule="evenodd" clip-rule="evenodd" fill="#FFFFFF" d="M83.46,54.9c31.06,0,61.95,0,92.948,0
			c0,19.427,0,38.808,0,58.321c-0.634,0.029-1.21,0.081-1.786,0.081c-29.736,0.003-59.474,0.002-89.21,0.002
			c-1.95,0-1.952-0.004-1.952-1.881c0-18.235,0-36.471,0-54.706C83.46,56.143,83.46,55.566,83.46,54.9z M137.808,103.178
			c1.618,0,3.045,0.093,4.451-0.037c0.774-0.07,1.865-0.289,2.214-0.828c1.809-2.797,3.423-5.72,5.062-8.521
			c-3.978,0-7.813,0-11.724,0c-0.037-0.789-0.076-1.587-0.132-2.778c-1.025,1.701-1.704,3.189-2.708,4.412
			c-1.781,2.176-1.802,4.116,0.005,6.291c1.019,1.225,1.697,2.729,2.529,4.105c0.101-0.047,0.203-0.094,0.303-0.14
			C137.808,104.911,137.808,104.139,137.808,103.178z M143.382,73.184c-0.248-0.381-0.413-0.62-0.563-0.867
			c-3.265-5.348-1.586-4.559-8.224-4.621c-1.816-0.017-3.634-0.003-5.137-0.003c2.005,3.369,3.989,6.706,5.995,10.079
			c-0.893,0.566-1.562,0.992-2.23,1.416c2.562,0.242,5.018,0.268,7.474,0.22c0.425-0.009,1.045-0.198,1.23-0.51
			c1.315-2.206,2.539-4.465,3.984-7.049C144.866,72.399,144.191,72.756,143.382,73.184z M122.493,87.974
			c0.959,0.483,1.68,0.847,2.712,1.366c-1.406-2.529-2.617-4.756-3.892-6.944c-0.182-0.313-0.664-0.63-1.015-0.638
			c-2.566-0.054-5.138-0.028-7.706-0.028c-0.015,0.114-0.03,0.229-0.045,0.344c0.68,0.429,1.361,0.858,2.11,1.331
			c-0.827,1.459-1.696,2.775-2.331,4.197c-0.306,0.686-0.491,1.738-0.179,2.337c1.494,2.856,3.179,5.614,4.7,8.241
			C118.711,94.811,120.571,91.447,122.493,87.974z M130.298,103.1c0-3.119,0-6.092,0-9.168c-3.135,0-6.172-0.016-9.209,0.024
			c-0.313,0.004-0.749,0.266-0.91,0.537c-0.55,0.923-1.12,1.863-1.468,2.871c-0.947,2.74,0.664,5.452,3.554,5.69
			C124.888,103.271,127.544,103.1,130.298,103.1z M147.075,79.752c-2.694,1.537-5.278,3.014-7.972,4.551
			c1.58,2.729,3.082,5.364,4.645,7.965c0.182,0.303,0.69,0.564,1.055,0.572c1.072,0.021,2.17,0.021,3.22-0.179
			c2.664-0.506,4.226-3.483,3.011-5.913C149.854,84.389,148.442,82.147,147.075,79.752z M126.356,81.449
			c1.607-2.781,3.153-5.44,4.671-8.115c0.118-0.208,0.143-0.599,0.025-0.789c-0.696-1.118-1.309-2.337-2.21-3.27
			c-1.665-1.723-4.795-1.592-6.123,0.327c-1.577,2.276-2.881,4.743-4.345,7.198C121.077,78.374,123.612,79.851,126.356,81.449z"/>
		<path fill-rule="evenodd" clip-rule="evenodd" fill="#FFFFFF" d="M75.862,117.271c15.451,0,30.612,0,46.259,0
			c-4.87,4.186-7.211,9.131-7.272,15.213c-15.261,0-30.464,0-45.469,0c-0.586-2.5-0.928-4.95-1.739-7.232
			c-2.878-8.09-10.67-12.284-18.404-11.679c-9.319,0.729-15.78,6.472-17.264,14.974c-0.168,0.964-0.147,1.973-0.4,2.908
			c-0.107,0.399-0.688,0.947-1.062,0.953c-3.843,0.058-5.276-1.276-5.354-5.177c-0.095-4.864-0.031-9.733-0.044-14.601
			c-0.007-3.097-0.122-6.199,0-9.289c0.063-1.584,0.32-3.234,0.872-4.713c2.71-7.262,5.547-14.475,8.342-21.706
			c0.213-0.549,0.469-1.083,0.647-1.644c0.801-2.518,2.412-3.514,5.142-3.654c9.224-0.475,18.433-1.238,27.646-1.878
			c2.633-0.183,5.269-0.321,8.101-0.493C75.862,85.295,75.862,101.144,75.862,117.271z M60.77,77.445
			c-0.405-0.021-0.74-0.072-1.069-0.053c-6.514,0.398-13.027,0.809-19.541,1.21c-1.509,0.093-2.161,1.046-2.635,2.36
			c-1.86,5.162-3.771,10.305-5.698,15.441c-1.438,3.833-0.757,4.646,3.333,4.137c7.931-0.987,15.866-1.946,23.812-2.798
			c1.359-0.146,1.72-0.589,1.726-1.854c0.023-5.793,0.121-11.585,0.182-17.377C60.883,78.184,60.813,77.854,60.77,77.445z"/>
		<path fill-rule="evenodd" clip-rule="evenodd" fill="#FFFFFF" d="M50.259,147.1c-8.317-0.008-14.937-6.674-14.897-15.006
			c0.037-8.233,6.697-14.907,14.891-14.92c8.228-0.013,15.021,6.765,15.024,14.986C65.278,140.424,58.56,147.108,50.259,147.1z"/>
		<path fill-rule="evenodd" clip-rule="evenodd" fill="#FFFFFF" d="M134.561,147.099c-8.291,0.039-15.037-6.64-15.049-14.901
			c-0.012-8.236,6.756-15.023,14.982-15.023c8.199,0,14.889,6.669,14.928,14.883C149.463,140.409,142.891,147.06,134.561,147.099z"
			/>
		<path fill-rule="evenodd" clip-rule="evenodd" fill="#FFFFFF" d="M153.281,132.46c-0.064-5.901-2.282-10.908-7.106-15.007
			c10.362,0,20.387,0,30.661,0c0,1.965,0.022,3.962-0.007,5.957c-0.024,1.607,0.437,3.591-0.332,4.711
			c-0.723,1.058-2.808,1.132-4.233,1.771c-5.213,2.334-10.643,3.281-16.333,2.761c-0.682-0.062-1.375-0.017-2.062-0.036
			C153.729,132.613,153.588,132.545,153.281,132.46z"/>
	</g>
	<path fill="#FFFFFF" d="M101,4.125C47.582,4.125,4.125,47.582,4.125,101c0,53.417,43.457,96.875,96.875,96.875
		c53.417,0,96.875-43.458,96.875-96.875C197.875,47.582,154.417,4.125,101,4.125z M201,101c0,55.229-44.771,100-100,100
		S1,156.229,1,101C1,45.771,45.771,1,101,1S201,45.771,201,101z"/>
</g>
</svg>
